<svg xmlns="http://www.w3.org/2000/svg" viewBox="0 0 349 356" width="349" height="356">
  <path d="M 0.00 0.00 L 0.00 1.00 L 0.00 2.00 L 0.00 3.00 L 0.00 4.00 L 0.00 5.00 L 0.00 6.00 L 0.00 7.00 L 0.00 8.00 L 0.00 9.00 L 0.00 10.00 L 0.00 11.00 L 0.00 12.00 L 0.00 13.00 L 0.00 14.00 L 0.00 15.00 L 0.00 16.00 L 0.00 17.00 L 0.00 18.00 L 0.00 19.00 L 0.00 20.00 L 0.00 21.00 L 0.00 22.00 L 0.00 23.00 L 0.00 24.00 L 0.00 25.00 L 0.00 26.00 L 0.00 27.00 L 0.00 28.00 L 0.00 29.00 L 0.00 30.00 L 0.00 31.00 L 0.00 32.00 L 0.00 33.00 L 0.00 34.00 L 0.00 35.00 L 0.00 36.00 L 0.00 37.00 L 0.00 38.00 L 0.00 39.00 L 0.00 40.00 L 0.00 41.00 L 0.00 42.00 L 0.00 43.00 L 0.00 44.00 L 0.00 45.00 L 0.00 46.00 L 0.00 47.00 L 0.00 48.00 L 0.00 49.00 L 0.00 50.00 L 0.00 51.00 L 0.00 52.00 L 0.00 53.00 L 0.00 54.00 L 0.00 55.00 L 0.00 56.00 L 0.00 57.00 L 0.00 58.00 L 0.00 59.00 L 0.00 60.00 L 0.00 61.00 L 0.00 62.00 L 0.00 63.00 L 0.00 64.00 L 0.00 65.00 L 0.00 66.00 L 0.00 67.00 L 0.00 68.00 L 0.00 69.00 L 0.00 70.00 L 0.00 71.00 L 0.00 72.00 L 0.00 73.00 L 0.00 74.00 L 0.00 75.00 L 0.00 76.00 L 0.00 77.00 L 0.00 78.00 L 0.00 79.00 L 0.00 80.00 L 0.00 81.00 L 0.00 82.00 L 0.00 83.00 L 0.00 84.00 L 0.00 85.00 L 0.00 86.00 L 0.00 87.00 L 0.00 88.00 L 0.00 89.00 L 0.00 90.00 L 0.00 91.00 L 0.00 92.00 L 0.00 93.00 L 0.00 94.00 L 0.00 95.00 L 0.00 96.00 L 0.00 97.00 L 0.00 98.00 L 0.00 99.00 L 0.00 100.00 L 0.00 101.00 L 0.00 102.00 L 0.00 103.00 L 0.00 104.00 L 0.00 105.00 L 0.00 106.00 L 0.00 107.00 L 0.00 108.00 L 0.00 109.00 L 0.00 110.00 L 0.00 111.00 L 0.00 112.00 L 0.00 113.00 L 0.00 114.00 L 0.00 115.00 L 0.00 116.00 L 0.00 117.00 L 0.00 118.00 L 0.00 119.00 L 0.00 120.00 L 0.00 121.00 L 0.00 122.00 L 0.00 123.00 L 0.00 124.00 L 0.00 125.00 L 0.00 126.00 L 0.00 127.00 L 0.00 128.00 L 0.00 129.00 L 0.00 130.00 L 0.00 131.00 L 0.00 132.00 L 0.00 133.00 L 0.00 134.00 L 0.00 135.00 L 0.00 136.00 L 0.00 137.00 L 0.00 138.00 L 0.00 139.00 L 0.00 140.00 L 0.00 141.00 L 0.00 142.00 L 0.00 143.00 L 0.00 144.00 L 0.00 145.00 L 0.00 146.00 L 0.00 147.00 L 0.00 148.00 L 0.00 149.00 L 0.00 150.00 L 0.00 151.00 L 0.00 152.00 L 0.00 153.00 L 0.00 154.00 L 0.00 155.00 L 0.00 156.00 L 0.00 157.00 L 0.00 158.00 L 0.00 159.00 L 0.00 160.00 L 0.00 161.00 L 0.00 162.00 L 0.00 163.00 L 0.00 164.00 L 0.00 165.00 L 0.00 166.00 L 0.00 167.00 L 0.00 168.00 L 0.00 169.00 L 0.00 170.00 L 0.00 171.00 L 0.00 172.00 L 0.00 173.00 L 0.00 174.00 L 0.00 175.00 L 0.00 176.00 L 0.00 177.00 L 0.00 178.00 L 0.00 179.00 L 0.00 180.00 L 0.00 181.00 L 0.00 182.00 L 0.00 183.00 L 0.00 184.00 L 0.00 185.00 L 0.00 186.00 L 0.00 187.00 L 0.00 188.00 L 0.00 189.00 L 0.00 190.00 L 0.00 191.00 L 0.00 192.00 L 0.00 193.00 L 0.00 194.00 L 0.00 195.00 L 0.00 196.00 L 0.00 197.00 L 0.00 198.00 L 0.00 199.00 L 0.00 200.00 L 0.00 201.00 L 0.00 202.00 L 0.00 203.00 L 0.00 204.00 L 0.00 205.00 L 0.00 206.00 L 0.00 207.00 L 0.00 208.00 L 0.00 209.00 L 0.00 210.00 L 0.00 211.00 L 0.00 212.00 L 0.00 213.00 L 0.00 214.00 L 0.00 215.00 L 0.00 216.00 L 0.00 217.00 L 0.00 218.00 L 0.00 219.00 L 0.00 220.00 L 0.00 221.00 L 0.00 222.00 L 0.00 223.00 L 0.00 224.00 L 0.00 225.00 L 0.00 226.00 L 0.00 227.00 L 0.00 228.00 L 0.00 229.00 L 0.00 230.00 L 0.00 231.00 L 0.00 232.00 L 0.00 233.00 L 0.00 234.00 L 0.00 235.00 L 0.00 236.00 L 0.00 237.00 L 0.00 238.00 L 0.00 239.00 L 0.00 240.00 L 0.00 241.00 L 0.00 242.00 L 0.00 243.00 L 0.00 244.00 L 0.00 245.00 L 0.00 246.00 L 0.00 247.00 L 0.00 248.00 L 0.00 249.00 L 0.00 250.00 L 0.00 251.00 L 0.00 252.00 L 0.00 253.00 L 0.00 254.00 L 0.00 255.00 L 0.00 256.00 L 0.00 257.00 L 0.00 258.00 L 0.00 259.00 L 0.00 260.00 L 0.00 261.00 L 0.00 262.00 L 0.00 263.00 L 0.00 264.00 L 0.00 265.00 L 0.00 266.00 L 0.00 267.00 L 0.00 268.00 L 0.00 269.00 L 0.00 270.00 L 0.00 271.00 L 0.00 272.00 L 0.00 273.00 L 0.00 274.00 L 0.00 275.00 L 0.00 276.00 L 0.00 277.00 L 0.00 278.00 L 0.00 279.00 L 0.00 280.00 L 0.00 281.00 L 0.00 282.00 L 0.00 283.00 L 0.00 284.00 L 0.00 285.00 L 0.00 286.00 L 0.00 287.00 L 0.00 288.00 L 0.00 289.00 L 0.00 290.00 L 0.00 291.00 L 0.00 292.00 L 0.00 293.00 L 0.00 294.00 L 0.00 295.00 L 0.00 296.00 L 0.00 297.00 L 0.00 298.00 L 0.00 299.00 L 0.00 300.00 L 0.00 301.00 L 0.00 302.00 L 0.00 303.00 L 0.00 304.00 L 0.00 305.00 L 0.00 306.00 L 0.00 307.00 L 0.00 308.00 L 0.00 309.00 L 0.00 310.00 L 0.00 311.00 L 0.00 312.00 L 0.00 313.00 L 0.00 314.00 L 0.00 315.00 L 0.00 316.00 L 0.00 317.00 L 0.00 318.00 L 0.00 319.00 L 0.00 320.00 L 0.00 321.00 L 0.00 322.00 L 0.00 323.00 L 0.00 324.00 L 0.00 325.00 L 0.00 326.00 L 0.00 327.00 L 0.00 328.00 L 0.00 329.00 L 0.00 330.00 L 0.00 331.00 L 0.00 332.00 L 0.00 333.00 L 0.00 334.00 L 0.00 335.00 L 0.00 336.00 L 0.00 337.00 L 0.00 338.00 L 0.00 339.00 L 0.00 340.00 L 0.00 341.00 L 0.00 342.00 L 0.00 343.00 L 0.00 344.00 L 0.00 345.00 L 0.00 346.00 L 0.00 347.00 L 0.00 348.00 L 0.00 349.00 L 0.00 350.00 L 0.00 351.00 L 0.00 352.00 L 0.00 353.00 L 0.00 354.00 L 0.00 355.00 L 1.00 355.00 L 2.00 355.00 L 3.00 355.00 L 4.00 355.00 L 5.00 355.00 L 6.00 355.00 L 7.00 355.00 L 8.00 355.00 L 9.00 355.00 L 10.00 355.00 L 11.00 355.00 L 12.00 355.00 L 13.00 355.00 L 14.00 355.00 L 15.00 355.00 L 16.00 355.00 L 17.00 355.00 L 18.00 355.00 L 19.00 355.00 L 20.00 355.00 L 21.00 355.00 L 22.00 355.00 L 23.00 355.00 L 24.00 355.00 L 25.00 355.00 L 26.00 355.00 L 27.00 355.00 L 28.00 355.00 L 29.00 355.00 L 30.00 355.00 L 31.00 355.00 L 32.00 355.00 L 33.00 355.00 L 34.00 355.00 L 35.00 355.00 L 36.00 355.00 L 37.00 355.00 L 38.00 355.00 L 39.00 355.00 L 40.00 355.00 L 41.00 355.00 L 42.00 355.00 L 43.00 355.00 L 44.00 355.00 L 45.00 355.00 L 46.00 355.00 L 47.00 355.00 L 48.00 355.00 L 49.00 355.00 L 50.00 355.00 L 51.00 355.00 L 52.00 355.00 L 53.00 355.00 L 54.00 355.00 L 55.00 355.00 L 56.00 355.00 L 57.00 355.00 L 58.00 355.00 L 59.00 355.00 L 60.00 355.00 L 61.00 355.00 L 62.00 355.00 L 63.00 355.00 L 64.00 355.00 L 65.00 355.00 L 66.00 355.00 L 67.00 355.00 L 68.00 355.00 L 69.00 355.00 L 70.00 355.00 L 71.00 355.00 L 72.00 355.00 L 73.00 355.00 L 74.00 355.00 L 75.00 355.00 L 76.00 355.00 L 77.00 355.00 L 78.00 355.00 L 79.00 355.00 L 80.00 355.00 L 81.00 355.00 L 82.00 355.00 L 83.00 355.00 L 84.00 355.00 L 85.00 355.00 L 86.00 355.00 L 87.00 355.00 L 88.00 355.00 L 89.00 355.00 L 90.00 355.00 L 91.00 355.00 L 92.00 355.00 L 93.00 355.00 L 94.00 355.00 L 95.00 355.00 L 96.00 355.00 L 97.00 355.00 L 98.00 355.00 L 99.00 355.00 L 100.00 355.00 L 101.00 355.00 L 102.00 355.00 L 103.00 355.00 L 104.00 355.00 L 105.00 355.00 L 106.00 355.00 L 107.00 355.00 L 108.00 355.00 L 109.00 355.00 L 110.00 355.00 L 111.00 355.00 L 112.00 355.00 L 113.00 355.00 L 114.00 355.00 L 115.00 355.00 L 116.00 355.00 L 117.00 355.00 L 118.00 355.00 L 119.00 355.00 L 120.00 355.00 L 121.00 355.00 L 122.00 355.00 L 123.00 355.00 L 124.00 355.00 L 125.00 355.00 L 126.00 355.00 L 127.00 355.00 L 128.00 355.00 L 129.00 355.00 L 130.00 355.00 L 131.00 355.00 L 132.00 355.00 L 133.00 355.00 L 134.00 355.00 L 135.00 355.00 L 136.00 355.00 L 137.00 355.00 L 138.00 355.00 L 139.00 355.00 L 140.00 355.00 L 141.00 355.00 L 142.00 355.00 L 143.00 355.00 L 144.00 355.00 L 145.00 355.00 L 146.00 355.00 L 147.00 355.00 L 148.00 355.00 L 149.00 355.00 L 150.00 355.00 L 151.00 355.00 L 152.00 355.00 L 153.00 355.00 L 154.00 355.00 L 155.00 355.00 L 156.00 355.00 L 157.00 355.00 L 158.00 355.00 L 159.00 355.00 L 160.00 355.00 L 161.00 355.00 L 162.00 355.00 L 163.00 355.00 L 164.00 355.00 L 165.00 355.00 L 166.00 355.00 L 167.00 355.00 L 168.00 355.00 L 169.00 355.00 L 170.00 355.00 L 171.00 355.00 L 172.00 355.00 L 173.00 355.00 L 174.00 355.00 L 175.00 355.00 L 176.00 355.00 L 177.00 355.00 L 178.00 355.00 L 179.00 355.00 L 180.00 355.00 L 181.00 355.00 L 182.00 355.00 L 183.00 355.00 L 184.00 355.00 L 185.00 355.00 L 186.00 355.00 L 187.00 355.00 L 188.00 355.00 L 189.00 355.00 L 190.00 355.00 L 191.00 355.00 L 192.00 355.00 L 193.00 355.00 L 194.00 355.00 L 195.00 355.00 L 196.00 355.00 L 197.00 355.00 L 198.00 355.00 L 199.00 355.00 L 200.00 355.00 L 201.00 355.00 L 202.00 355.00 L 203.00 355.00 L 204.00 355.00 L 205.00 355.00 L 206.00 355.00 L 207.00 355.00 L 208.00 355.00 L 209.00 355.00 L 210.00 355.00 L 211.00 355.00 L 212.00 355.00 L 213.00 355.00 L 214.00 355.00 L 215.00 355.00 L 216.00 355.00 L 217.00 355.00 L 218.00 355.00 L 219.00 355.00 L 220.00 355.00 L 221.00 355.00 L 222.00 355.00 L 223.00 355.00 L 224.00 355.00 L 225.00 355.00 L 226.00 355.00 L 227.00 355.00 L 228.00 355.00 L 229.00 355.00 L 230.00 355.00 L 231.00 355.00 L 232.00 355.00 L 233.00 355.00 L 234.00 355.00 L 235.00 355.00 L 236.00 355.00 L 237.00 355.00 L 238.00 355.00 L 239.00 355.00 L 240.00 355.00 L 241.00 355.00 L 242.00 355.00 L 243.00 355.00 L 244.00 355.00 L 245.00 355.00 L 246.00 355.00 L 247.00 355.00 L 248.00 355.00 L 249.00 355.00 L 250.00 355.00 L 251.00 355.00 L 252.00 355.00 L 253.00 355.00 L 254.00 355.00 L 255.00 355.00 L 256.00 355.00 L 257.00 355.00 L 258.00 355.00 L 259.00 355.00 L 260.00 355.00 L 261.00 355.00 L 262.00 355.00 L 263.00 355.00 L 264.00 355.00 L 265.00 355.00 L 266.00 355.00 L 267.00 355.00 L 268.00 355.00 L 269.00 355.00 L 270.00 355.00 L 271.00 355.00 L 272.00 355.00 L 273.00 355.00 L 274.00 355.00 L 275.00 355.00 L 276.00 355.00 L 277.00 355.00 L 278.00 355.00 L 279.00 355.00 L 280.00 355.00 L 281.00 355.00 L 282.00 355.00 L 283.00 355.00 L 284.00 355.00 L 285.00 355.00 L 286.00 355.00 L 287.00 355.00 L 288.00 355.00 L 289.00 355.00 L 290.00 355.00 L 291.00 355.00 L 292.00 355.00 L 293.00 355.00 L 294.00 355.00 L 295.00 355.00 L 296.00 355.00 L 297.00 355.00 L 298.00 355.00 L 299.00 355.00 L 300.00 355.00 L 301.00 355.00 L 302.00 355.00 L 303.00 355.00 L 304.00 355.00 L 305.00 355.00 L 306.00 355.00 L 307.00 355.00 L 308.00 355.00 L 309.00 355.00 L 310.00 355.00 L 311.00 355.00 L 312.00 355.00 L 313.00 355.00 L 314.00 355.00 L 315.00 355.00 L 316.00 355.00 L 317.00 355.00 L 318.00 355.00 L 319.00 355.00 L 320.00 355.00 L 321.00 355.00 L 322.00 355.00 L 323.00 355.00 L 324.00 355.00 L 325.00 355.00 L 326.00 355.00 L 327.00 355.00 L 328.00 355.00 L 329.00 355.00 L 330.00 355.00 L 331.00 355.00 L 332.00 355.00 L 333.00 355.00 L 334.00 355.00 L 335.00 355.00 L 336.00 355.00 L 337.00 355.00 L 338.00 355.00 L 339.00 355.00 L 340.00 355.00 L 341.00 355.00 L 342.00 355.00 L 343.00 355.00 L 344.00 355.00 L 345.00 355.00 L 346.00 355.00 L 347.00 355.00 L 348.00 355.00 L 348.00 354.00 L 348.00 353.00 L 348.00 352.00 L 348.00 351.00 L 348.00 350.00 L 348.00 349.00 L 348.00 348.00 L 348.00 347.00 L 348.00 346.00 L 348.00 345.00 L 348.00 344.00 L 348.00 343.00 L 348.00 342.00 L 348.00 341.00 L 348.00 340.00 L 348.00 339.00 L 348.00 338.00 L 348.00 337.00 L 348.00 336.00 L 348.00 335.00 L 348.00 334.00 L 348.00 333.00 L 348.00 332.00 L 348.00 331.00 L 348.00 330.00 L 348.00 329.00 L 348.00 328.00 L 348.00 327.00 L 348.00 326.00 L 348.00 325.00 L 348.00 324.00 L 348.00 323.00 L 348.00 322.00 L 348.00 321.00 L 348.00 320.00 L 348.00 319.00 L 348.00 318.00 L 348.00 317.00 L 348.00 316.00 L 348.00 315.00 L 348.00 314.00 L 348.00 313.00 L 348.00 312.00 L 348.00 311.00 L 348.00 310.00 L 348.00 309.00 L 348.00 308.00 L 348.00 307.00 L 348.00 306.00 L 348.00 305.00 L 348.00 304.00 L 348.00 303.00 L 348.00 302.00 L 348.00 301.00 L 348.00 300.00 L 348.00 299.00 L 348.00 298.00 L 348.00 297.00 L 348.00 296.00 L 348.00 295.00 L 348.00 294.00 L 348.00 293.00 L 348.00 292.00 L 348.00 291.00 L 348.00 290.00 L 348.00 289.00 L 348.00 288.00 L 348.00 287.00 L 348.00 286.00 L 348.00 285.00 L 348.00 284.00 L 348.00 283.00 L 348.00 282.00 L 348.00 281.00 L 348.00 280.00 L 348.00 279.00 L 348.00 278.00 L 348.00 277.00 L 348.00 276.00 L 348.00 275.00 L 348.00 274.00 L 348.00 273.00 L 348.00 272.00 L 348.00 271.00 L 348.00 270.00 L 348.00 269.00 L 348.00 268.00 L 348.00 267.00 L 348.00 266.00 L 348.00 265.00 L 348.00 264.00 L 348.00 263.00 L 348.00 262.00 L 348.00 261.00 L 348.00 260.00 L 348.00 259.00 L 348.00 258.00 L 348.00 257.00 L 348.00 256.00 L 348.00 255.00 L 348.00 254.00 L 348.00 253.00 L 348.00 252.00 L 348.00 251.00 L 348.00 250.00 L 348.00 249.00 L 348.00 248.00 L 348.00 247.00 L 348.00 246.00 L 348.00 245.00 L 348.00 244.00 L 348.00 243.00 L 348.00 242.00 L 348.00 241.00 L 348.00 240.00 L 348.00 239.00 L 348.00 238.00 L 348.00 237.00 L 348.00 236.00 L 348.00 235.00 L 348.00 234.00 L 348.00 233.00 L 348.00 232.00 L 348.00 231.00 L 348.00 230.00 L 348.00 229.00 L 348.00 228.00 L 348.00 227.00 L 348.00 226.00 L 348.00 225.00 L 348.00 224.00 L 348.00 223.00 L 348.00 222.00 L 348.00 221.00 L 348.00 220.00 L 348.00 219.00 L 348.00 218.00 L 348.00 217.00 L 348.00 216.00 L 348.00 215.00 L 348.00 214.00 L 348.00 213.00 L 348.00 212.00 L 348.00 211.00 L 348.00 210.00 L 348.00 209.00 L 348.00 208.00 L 348.00 207.00 L 348.00 206.00 L 348.00 205.00 L 348.00 204.00 L 348.00 203.00 L 348.00 202.00 L 348.00 201.00 L 348.00 200.00 L 348.00 199.00 L 348.00 198.00 L 348.00 197.00 L 348.00 196.00 L 348.00 195.00 L 348.00 194.00 L 348.00 193.00 L 348.00 192.00 L 348.00 191.00 L 348.00 190.00 L 348.00 189.00 L 348.00 188.00 L 348.00 187.00 L 348.00 186.00 L 348.00 185.00 L 348.00 184.00 L 348.00 183.00 L 348.00 182.00 L 348.00 181.00 L 348.00 180.00 L 348.00 179.00 L 348.00 178.00 L 348.00 177.00 L 348.00 176.00 L 348.00 175.00 L 348.00 174.00 L 348.00 173.00 L 348.00 172.00 L 348.00 171.00 L 348.00 170.00 L 348.00 169.00 L 348.00 168.00 L 348.00 167.00 L 348.00 166.00 L 348.00 165.00 L 348.00 164.00 L 348.00 163.00 L 348.00 162.00 L 348.00 161.00 L 348.00 160.00 L 348.00 159.00 L 348.00 158.00 L 348.00 157.00 L 348.00 156.00 L 348.00 155.00 L 348.00 154.00 L 348.00 153.00 L 348.00 152.00 L 348.00 151.00 L 348.00 150.00 L 348.00 149.00 L 348.00 148.00 L 348.00 147.00 L 348.00 146.00 L 348.00 145.00 L 348.00 144.00 L 348.00 143.00 L 348.00 142.00 L 348.00 141.00 L 348.00 140.00 L 348.00 139.00 L 348.00 138.00 L 348.00 137.00 L 348.00 136.00 L 348.00 135.00 L 348.00 134.00 L 348.00 133.00 L 348.00 132.00 L 348.00 131.00 L 348.00 130.00 L 348.00 129.00 L 348.00 128.00 L 348.00 127.00 L 348.00 126.00 L 348.00 125.00 L 348.00 124.00 L 348.00 123.00 L 348.00 122.00 L 348.00 121.00 L 348.00 120.00 L 348.00 119.00 L 348.00 118.00 L 348.00 117.00 L 348.00 116.00 L 348.00 115.00 L 348.00 114.00 L 348.00 113.00 L 348.00 112.00 L 348.00 111.00 L 348.00 110.00 L 348.00 109.00 L 348.00 108.00 L 348.00 107.00 L 348.00 106.00 L 348.00 105.00 L 348.00 104.00 L 348.00 103.00 L 348.00 102.00 L 348.00 101.00 L 348.00 100.00 L 348.00 99.00 L 348.00 98.00 L 348.00 97.00 L 348.00 96.00 L 348.00 95.00 L 348.00 94.00 L 348.00 93.00 L 348.00 92.00 L 348.00 91.00 L 348.00 90.00 L 348.00 89.00 L 348.00 88.00 L 348.00 87.00 L 348.00 86.00 L 348.00 85.00 L 348.00 84.00 L 348.00 83.00 L 348.00 82.00 L 348.00 81.00 L 348.00 80.00 L 348.00 79.00 L 348.00 78.00 L 348.00 77.00 L 348.00 76.00 L 348.00 75.00 L 348.00 74.00 L 348.00 73.00 L 348.00 72.00 L 348.00 71.00 L 348.00 70.00 L 348.00 69.00 L 348.00 68.00 L 348.00 67.00 L 348.00 66.00 L 348.00 65.00 L 348.00 64.00 L 348.00 63.00 L 348.00 62.00 L 348.00 61.00 L 348.00 60.00 L 348.00 59.00 L 348.00 58.00 L 348.00 57.00 L 348.00 56.00 L 348.00 55.00 L 348.00 54.00 L 348.00 53.00 L 348.00 52.00 L 348.00 51.00 L 348.00 50.00 L 348.00 49.00 L 348.00 48.00 L 348.00 47.00 L 348.00 46.00 L 348.00 45.00 L 348.00 44.00 L 348.00 43.00 L 348.00 42.00 L 348.00 41.00 L 348.00 40.00 L 348.00 39.00 L 348.00 38.00 L 348.00 37.00 L 348.00 36.00 L 348.00 35.00 L 348.00 34.00 L 348.00 33.00 L 348.00 32.00 L 348.00 31.00 L 348.00 30.00 L 348.00 29.00 L 348.00 28.00 L 348.00 27.00 L 348.00 26.00 L 348.00 25.00 L 348.00 24.00 L 348.00 23.00 L 348.00 22.00 L 348.00 21.00 L 348.00 20.00 L 348.00 19.00 L 348.00 18.00 L 348.00 17.00 L 348.00 16.00 L 348.00 15.00 L 348.00 14.00 L 348.00 13.00 L 348.00 12.00 L 348.00 11.00 L 348.00 10.00 L 348.00 9.00 L 348.00 8.00 L 348.00 7.00 L 348.00 6.00 L 348.00 5.00 L 348.00 4.00 L 348.00 3.00 L 348.00 2.00 L 348.00 1.00 L 348.00 0.00 L 347.00 0.00 L 346.00 0.00 L 345.00 0.00 L 344.00 0.00 L 343.00 0.00 L 342.00 0.00 L 341.00 0.00 L 340.00 0.00 L 339.00 0.00 L 338.00 0.00 L 337.00 0.00 L 336.00 0.00 L 335.00 0.00 L 334.00 0.00 L 333.00 0.00 L 332.00 0.00 L 331.00 0.00 L 330.00 0.00 L 329.00 0.00 L 328.00 0.00 L 327.00 0.00 L 326.00 0.00 L 325.00 0.00 L 324.00 0.00 L 323.00 0.00 L 322.00 0.00 L 321.00 0.00 L 320.00 0.00 L 319.00 0.00 L 318.00 0.00 L 317.00 0.00 L 316.00 0.00 L 315.00 0.00 L 314.00 0.00 L 313.00 0.00 L 312.00 0.00 L 311.00 0.00 L 310.00 0.00 L 309.00 0.00 L 308.00 0.00 L 307.00 0.00 L 306.00 0.00 L 305.00 0.00 L 304.00 0.00 L 303.00 0.00 L 302.00 0.00 L 301.00 0.00 L 300.00 0.00 L 299.00 0.00 L 298.00 0.00 L 297.00 0.00 L 296.00 0.00 L 295.00 0.00 L 294.00 0.00 L 293.00 0.00 L 292.00 0.00 L 291.00 0.00 L 290.00 0.00 L 289.00 0.00 L 288.00 0.00 L 287.00 0.00 L 286.00 0.00 L 285.00 0.00 L 284.00 0.00 L 283.00 0.00 L 282.00 0.00 L 281.00 0.00 L 280.00 0.00 L 279.00 0.00 L 278.00 0.00 L 277.00 0.00 L 276.00 0.00 L 275.00 0.00 L 274.00 0.00 L 273.00 0.00 L 272.00 0.00 L 271.00 0.00 L 270.00 0.00 L 269.00 0.00 L 268.00 0.00 L 267.00 0.00 L 266.00 0.00 L 265.00 0.00 L 264.00 0.00 L 263.00 0.00 L 262.00 0.00 L 261.00 0.00 L 260.00 0.00 L 259.00 0.00 L 258.00 0.00 L 257.00 0.00 L 256.00 0.00 L 255.00 0.00 L 254.00 0.00 L 253.00 0.00 L 252.00 0.00 L 251.00 0.00 L 250.00 0.00 L 249.00 0.00 L 248.00 0.00 L 247.00 0.00 L 246.00 0.00 L 245.00 0.00 L 244.00 0.00 L 243.00 0.00 L 242.00 0.00 L 241.00 0.00 L 240.00 0.00 L 239.00 0.00 L 238.00 0.00 L 237.00 0.00 L 236.00 0.00 L 235.00 0.00 L 234.00 0.00 L 233.00 0.00 L 232.00 0.00 L 231.00 0.00 L 230.00 0.00 L 229.00 0.00 L 228.00 0.00 L 227.00 0.00 L 226.00 0.00 L 225.00 0.00 L 224.00 0.00 L 223.00 0.00 L 222.00 0.00 L 221.00 0.00 L 220.00 0.00 L 219.00 0.00 L 218.00 0.00 L 217.00 0.00 L 216.00 0.00 L 215.00 0.00 L 214.00 0.00 L 213.00 0.00 L 212.00 0.00 L 211.00 0.00 L 210.00 0.00 L 209.00 0.00 L 208.00 0.00 L 207.00 0.00 L 206.00 0.00 L 205.00 0.00 L 204.00 0.00 L 203.00 0.00 L 202.00 0.00 L 201.00 0.00 L 200.00 0.00 L 199.00 0.00 L 198.00 0.00 L 197.00 0.00 L 196.00 0.00 L 195.00 0.00 L 194.00 0.00 L 193.00 0.00 L 192.00 0.00 L 191.00 0.00 L 190.00 0.00 L 189.00 0.00 L 188.00 0.00 L 187.00 0.00 L 186.00 0.00 L 185.00 0.00 L 184.00 0.00 L 183.00 0.00 L 182.00 0.00 L 181.00 0.00 L 180.00 0.00 L 179.00 0.00 L 178.00 0.00 L 177.00 0.00 L 176.00 0.00 L 175.00 0.00 L 174.00 0.00 L 173.00 0.00 L 172.00 0.00 L 171.00 0.00 L 170.00 0.00 L 169.00 0.00 L 168.00 0.00 L 167.00 0.00 L 166.00 0.00 L 165.00 0.00 L 164.00 0.00 L 163.00 0.00 L 162.00 0.00 L 161.00 0.00 L 160.00 0.00 L 159.00 0.00 L 158.00 0.00 L 157.00 0.00 L 156.00 0.00 L 155.00 0.00 L 154.00 0.00 L 153.00 0.00 L 152.00 0.00 L 151.00 0.00 L 150.00 0.00 L 149.00 0.00 L 148.00 0.00 L 147.00 0.00 L 146.00 0.00 L 145.00 0.00 L 144.00 0.00 L 143.00 0.00 L 142.00 0.00 L 141.00 0.00 L 140.00 0.00 L 139.00 0.00 L 138.00 0.00 L 137.00 0.00 L 136.00 0.00 L 135.00 0.00 L 134.00 0.00 L 133.00 0.00 L 132.00 0.00 L 131.00 0.00 L 130.00 0.00 L 129.00 0.00 L 128.00 0.00 L 127.00 0.00 L 126.00 0.00 L 125.00 0.00 L 124.00 0.00 L 123.00 0.00 L 122.00 0.00 L 121.00 0.00 L 120.00 0.00 L 119.00 0.00 L 118.00 0.00 L 117.00 0.00 L 116.00 0.00 L 115.00 0.00 L 114.00 0.00 L 113.00 0.00 L 112.00 0.00 L 111.00 0.00 L 110.00 0.00 L 109.00 0.00 L 108.00 0.00 L 107.00 0.00 L 106.00 0.00 L 105.00 0.00 L 104.00 0.00 L 103.00 0.00 L 102.00 0.00 L 101.00 0.00 L 100.00 0.00 L 99.00 0.00 L 98.00 0.00 L 97.00 0.00 L 96.00 0.00 L 95.00 0.00 L 94.00 0.00 L 93.00 0.00 L 92.00 0.00 L 91.00 0.00 L 90.00 0.00 L 89.00 0.00 L 88.00 0.00 L 87.00 0.00 L 86.00 0.00 L 85.00 0.00 L 84.00 0.00 L 83.00 0.00 L 82.00 0.00 L 81.00 0.00 L 80.00 0.00 L 79.00 0.00 L 78.00 0.00 L 77.00 0.00 L 76.00 0.00 L 75.00 0.00 L 74.00 0.00 L 73.00 0.00 L 72.00 0.00 L 71.00 0.00 L 70.00 0.00 L 69.00 0.00 L 68.00 0.00 L 67.00 0.00 L 66.00 0.00 L 65.00 0.00 L 64.00 0.00 L 63.00 0.00 L 62.00 0.00 L 61.00 0.00 L 60.00 0.00 L 59.00 0.00 L 58.00 0.00 L 57.00 0.00 L 56.00 0.00 L 55.00 0.00 L 54.00 0.00 L 53.00 0.00 L 52.00 0.00 L 51.00 0.00 L 50.00 0.00 L 49.00 0.00 L 48.00 0.00 L 47.00 0.00 L 46.00 0.00 L 45.00 0.00 L 44.00 0.00 L 43.00 0.00 L 42.00 0.00 L 41.00 0.00 L 40.00 0.00 L 39.00 0.00 L 38.00 0.00 L 37.00 0.00 L 36.00 0.00 L 35.00 0.00 L 34.00 0.00 L 33.00 0.00 L 32.00 0.00 L 31.00 0.00 L 30.00 0.00 L 29.00 0.00 L 28.00 0.00 L 27.00 0.00 L 26.00 0.00 L 25.00 0.00 L 24.00 0.00 L 23.00 0.00 L 22.00 0.00 L 21.00 0.00 L 20.00 0.00 L 19.00 0.00 L 18.00 0.00 L 17.00 0.00 L 16.00 0.00 L 15.00 0.00 L 14.00 0.00 L 13.00 0.00 L 12.00 0.00 L 11.00 0.00 L 10.00 0.00 L 9.00 0.00 L 8.00 0.00 L 7.00 0.00 L 6.00 0.00 L 5.00 0.00 L 4.00 0.00 L 3.00 0.00 L 2.00 0.00 L 1.00 0.00 Z" fill="#D7DDE2" stroke="none"/>
</svg>