<svg xmlns="http://www.w3.org/2000/svg" viewBox="0 0 64 64">
  <rect x="6" y="22" width="28" height="14" rx="4" fill="currentColor"/>
  <rect x="34" y="24" width="8" height="10" fill="currentColor"/>
  <path d="M42 24h6a4 4 0 0 1 4 4v2a4 4 0 0 1-4 4h-6z" fill="currentColor"/>
  <path d="M48 34c0 0-3 2-3 6s3 6 3 10  -3 6 -3 8" fill="none" stroke="currentColor" stroke-width="3" stroke-linecap="round"/>
  <path d="M54 36c0 0-2 2-2 5s2 5 2 8 -2 5 -2 6" fill="none" stroke="currentColor" stroke-width="2.5" stroke-linecap="round" opacity=".9"/>
</svg>